Coordinates
version=1
nRows=8
nColumns=60
inDegrees=yes

Units are S.I. units (second, meters, Newtons, ...)
If the header above contains a line with 'inDegrees', this indicates whether rotational values are in degrees (yes) or radians (no).

endheader
time	pelvis_tilt	pelvis_list	pelvis_rotation	pelvis_tx	pelvis_ty	pelvis_tz	hip_flexion_r	hip_adduction_r	hip_rotation_r	knee_angle_r_beta	knee_angle_r	ankle_angle_r	subtalar_angle_r	mtp_angle_r	hip_flexion_l	hip_adduction_l	hip_rotation_l	knee_angle_l_beta	knee_angle_l	ankle_angle_l	subtalar_angle_l	mtp_angle_l	L5_S1_Flex_Ext	L5_S1_Lat_Bending	L5_S1_axial_rotation	L4_L5_Flex_Ext	L4_L5_Lat_Bending	L4_L5_axial_rotation	L3_L4_Flex_Ext	L3_L4_Lat_Bending	L3_L4_axial_rotation	L2_L3_Flex_Ext	L2_L3_Lat_Bending	L2_L3_axial_rotation	L1_L2_Flex_Ext	L1_L2_Lat_Bending	L1_L2_axial_rotation	L1_T12_Flex_Ext	L1_T12_Lat_Bending	L1_T12_axial_rotation	Abs_r3	Abs_r2	Abs_r1	Abs_t1	Abs_t2	arm_flex_r	arm_add_r	arm_rot_r	elbow_flex_r	pro_sup_r	wrist_flex_r	wrist_dev_r	arm_flex_l	arm_add_l	arm_rot_l	elbow_flex_l	pro_sup_l	wrist_flex_l	wrist_dev_l
     81.24000000	     -1.15175328	     -3.14551106	     92.58844807	      0.39853827	      0.90148477	      0.38966386	     28.18215947	     -7.04577248	      2.19989387	      0.49172481	    -28.17375643	      5.82503922	      0.00000000	      0.00000000	     27.13270115	     -3.35986439	      0.19456651	      0.42219354	    -24.18990815	      4.75355758	      0.00000000	      0.00000000	    -10.55844376	      0.19125252	      0.17806413	    -19.60808590	      0.25436585	      0.18919314	    -17.34646725	      0.46501138	      0.18919314	    -12.06724537	      0.46501138	      0.15580611	     -9.80457087	      0.39000214	      0.14467710	     -6.03309476	      0.29625016	      0.13354810	    -75.41790791	      2.16348677	      0.99033926	      0.00000000	      0.00000000	     57.08369015	    -27.83405261	     18.91703480	     59.45200611	     73.00683744	      6.02116285	     -1.53135176	     68.33969347	    -22.18373054	     38.58965290	     51.80919087	     56.85239749	      9.05917442	      3.57160536
     81.25000000	     -1.21428755	     -3.43630797	     92.75603084	      0.39815108	      0.89983518	      0.39192669	     28.95351363	     -7.22595540	      2.09999521	      0.50246852	    -28.78932549	      5.80503626	      0.00000000	      0.00000000	     27.89627268	     -3.21072137	      0.30361071	      0.43097142	    -24.69284331	      4.63429399	      0.00000000	      0.00000000	    -10.65180319	      0.20848451	      0.15932108	    -19.78146370	      0.27728440	      0.16927865	    -17.49984746	      0.50690923	      0.16927865	    -12.17394586	      0.50690923	      0.13940595	     -9.89126444	      0.42514161	      0.12944838	     -6.08644034	      0.32294250	      0.11949081	    -76.08476499	      2.35841846	      0.88609606	      0.00000000	      0.00000000	     58.70599410	    -27.43548235	     18.80359703	     58.46294975	     73.00513819	      6.03879222	     -1.48568420	     69.92553978	    -21.66034411	     38.72992554	     50.75889167	     56.86523256	      9.04103678	      3.59992307
     81.26000000	     -1.26151851	     -3.90938898	     92.90837019	      0.39778156	      0.89789994	      0.39417278	     29.87449291	     -7.40857711	      1.94490611	      0.51087855	    -29.27118466	      5.91994227	      0.00000000	      0.00000000	     28.81484778	     -3.08487433	      0.29715548	      0.43792962	    -25.09151894	      4.67360201	      0.00000000	      0.00000000	    -10.69234925	      0.22290273	      0.13809067	    -19.85676179	      0.29646063	      0.14672134	    -17.56646058	      0.54196570	      0.14672134	    -12.22028595	      0.54196570	      0.12082934	     -9.92891551	      0.45454325	      0.11219867	     -6.10960836	      0.34527633	      0.10356800	    -76.37438144	      2.52152029	      0.76801888	      0.00000000	      0.00000000	     60.46331337	    -26.87179070	     19.01538767	     56.76539569	     73.09812345	      6.19304358	     -1.50597232	     71.68797359	    -20.97451630	     39.52902566	     48.82709867	     56.93858125	      9.25913996	      3.60023649
     81.27000000	     -1.29745672	     -4.22685459	     93.04248223	      0.39740382	      0.89614726	      0.39625722	     30.66113274	     -7.58152946	      1.75185569	      0.52097659	    -29.84976006	      5.96246547	      0.00000000	      0.00000000	     29.61615329	     -2.99028266	      0.24490123	      0.44737316	    -25.63259372	      4.64425931	      0.00000000	      0.00000000	    -10.77011882	      0.23869791	      0.11943067	    -20.00118765	      0.31746823	      0.12689509	    -17.69422820	      0.58037011	      0.12689509	    -12.30916879	      0.58037011	      0.10450184	    -10.00113233	      0.48675279	      0.09703742	     -6.15404589	      0.36974307	      0.08957300	    -76.92988168	      2.70019854	      0.66423755	      0.00000000	      0.00000000	     62.05472771	    -26.39922205	     18.90692539	     55.66182609	     73.16767668	      6.31488713	     -1.58971036	     73.24327563	    -20.46444645	     39.86919827	     47.57609362	     57.00196100	      9.55987110	      3.54671014
     81.28000000	     -1.34485273	     -4.56699105	     93.11500101	      0.39712209	      0.89434293	      0.39830136	     31.43232022	     -7.69681243	      1.79165124	      0.52950740	    -30.33853934	      5.98485128	      0.00000000	      0.00000000	     30.41300288	     -2.88761442	      0.24262169	      0.45600670	    -26.12725953	      4.64237252	      0.00000000	      0.00000000	    -10.83316685	      0.24903523	      0.11221281	    -20.11827416	      0.33121686	      0.11922611	    -17.79780982	      0.60550427	      0.11922611	    -12.38122639	      0.60550427	      0.09818621	    -10.05967874	      0.50783265	      0.09117291	     -6.19007154	      0.38575558	      0.08415961	    -77.38022750	      2.81713637	      0.62409397	      0.00000000	      0.00000000	     63.58353185	    -25.91425806	     18.62903208	     54.27860755	     74.11019994	      8.12220013	     -3.18543399	     74.80182160	    -19.89132113	     40.18332291	     45.81377960	     57.44104658	     13.46990924	      2.16365128
     81.29000000	     -1.33266308	     -4.88119559	     93.15276630	      0.39692070	      0.89247966	      0.40026403	     32.21742496	     -7.74920300	      1.74510867	      0.53928492	    -30.89875009	      6.06585506	      0.00000000	      0.00000000	     31.22642186	     -2.88042220	      0.18074162	      0.46639899	    -26.72269391	      4.71300776	      0.00000000	      0.00000000	    -10.90664817	      0.25939164	      0.10337001	    -20.25473631	      0.34499088	      0.10983064	    -17.91853227	      0.63068484	      0.10983064	    -12.46520819	      0.63068484	      0.09044876	    -10.12791349	      0.52895144	      0.08398813	     -6.23205876	      0.40179765	      0.07752751	    -77.90509719	      2.93429014	      0.57491300	      0.00000000	      0.00000000	     65.09488621	    -25.40289412	     18.44819988	     53.31404514	     74.14212520	      8.19902722	     -3.12239888	     76.19325367	    -19.51808817	     40.43356490	     44.81271510	     57.59182931	     13.62396956	      2.24792155
     81.30000000	     -1.33162650	     -5.19973915	     93.14596663	      0.39675634	      0.89056956	      0.40218445	     33.00561749	     -7.78784506	      1.77052359	      0.54869415	    -31.43785930	      6.10886705	      0.00000000	      0.00000000	     32.04529071	     -2.88021120	      0.07199715	      0.47703901	    -27.33232188	      4.78281232	      0.00000000	      0.00000000	    -10.97420102	      0.26487579	      0.10009697	    -20.38018871	      0.35228480	      0.10635303	    -18.02951486	      0.64401899	      0.10635303	    -12.54241435	      0.64401899	      0.08758485	    -10.19064307	      0.54013471	      0.08132879	     -6.27065846	      0.41029260	      0.07507273	    -78.38762046	      2.99632789	      0.55670930	      0.00000000	      0.00000000	     66.56228268	    -24.92967304	     18.24618593	     52.35867802	     74.27326997	      8.34655365	     -3.14202385	     77.56653853	    -19.18417734	     40.73993359	     43.80896859	     57.76574405	     13.97904210	      2.22964286
     81.31000000	     -1.32089755	     -5.51266017	     93.10699459	      0.39664345	      0.88857798	      0.40403863	     33.79370571	     -7.80383828	      1.78902602	      0.55825023	    -31.98538226	      6.15064583	      0.00000000	      0.00000000	     32.86563674	     -2.91639844	     -0.08388889	      0.48825895	    -27.97517701	      4.86758856	      0.00000000	      0.00000000	    -11.03951810	      0.26790406	      0.10428983	    -20.50148907	      0.35631240	      0.11080794	    -18.13682429	      0.65138193	      0.11080794	    -12.61706524	      0.65138193	      0.09125360	    -10.25129651	      0.54630996	      0.08473548	     -6.30798064	      0.41498339	      0.07821737	    -78.85417385	      3.03058430	      0.58002872	      0.00000000	      0.00000000	     67.94961084	    -24.50993604	     18.02039517	     51.52069705	     74.50011324	      8.57247577	     -3.25799828	     78.87883876	    -18.88594584	     40.98994822	     42.90363529	     57.89451170	     14.39028097	      2.03015625
